<svg xmlns="http://www.w3.org/2000/svg" xmlns:xlink="http://www.w3.org/1999/xlink" width="600" zoomAndPan="magnify" viewBox="0 0 450 269.999989" height="360" preserveAspectRatio="xMidYMid meet" version="1.0"><rect x="-45" width="540" fill="#ffffff" y="-26.999999" height="323.999987" fill-opacity="1"/><rect x="-45" width="540" fill="#ffffff" y="-26.999999" height="323.999987" fill-opacity="1"/><path fill="#40a1cf" d="M 277.863281 168.761719 C 277.492188 168.691406 275.761719 168.25 275.410156 168.15625 C 268.535156 166.261719 262.339844 162.144531 257.898438 157.164062 C 256.960938 156.089844 255.371094 154.523438 254.554688 153.355469 L 248.847656 146.339844 L 235.078125 147.066406 L 234.257812 161.023438 L 236.925781 164.109375 L 240.921875 168.714844 L 240.921875 168.738281 C 242.605469 170.867188 244.429688 172.855469 246.394531 174.703125 L 246.417969 174.726562 C 253.921875 181.832031 264.863281 187.234375 275.738281 189.175781 L 266.78125 176.851562 Z M 277.863281 168.761719 " fill-opacity="1" fill-rule="nonzero"/><path fill="#40a1cf" d="M 231.828125 158.195312 L 224.8125 149.988281 L 224.765625 150.058594 L 211.136719 134.34375 L 211.226562 134.226562 L 193.296875 113.324219 C 193.179688 113.183594 193.0625 113 192.945312 112.859375 L 192.78125 112.648438 L 192.125 98.828125 L 207.066406 98.128906 L 224.8125 118.609375 L 224.859375 118.5625 L 245.226562 142.0625 L 246.675781 143.910156 L 232.621094 144.539062 Z M 231.828125 158.195312 " fill-opacity="1" fill-rule="nonzero"/><path fill="#5a2d83" d="M 146.625 105.796875 C 152.144531 102.078125 158.761719 99.929688 165.914062 99.929688 C 175.316406 99.929688 183.824219 103.691406 190.066406 109.773438 L 189.4375 96.539062 L 204.960938 95.8125 L 204.726562 95.554688 C 194.769531 85.640625 181.042969 79.515625 165.914062 79.515625 C 153.382812 79.515625 141.785156 83.726562 132.527344 90.808594 L 131.589844 104.792969 Z M 146.625 105.796875 " fill-opacity="1" fill-rule="nonzero"/><path fill="#ffffff" d="M 206.574219 114.332031 C 206.015625 114.773438 205.453125 115.007812 204.914062 115.007812 C 204.378906 115.03125 203.933594 114.796875 203.605469 114.378906 C 203.277344 113.980469 203.160156 113.558594 203.253906 113.089844 L 201.523438 114.472656 L 200.871094 113.652344 L 205.945312 109.632812 L 206.550781 110.378906 L 206.226562 110.707031 C 206.714844 110.707031 207.113281 110.941406 207.441406 111.339844 C 207.792969 111.78125 207.910156 112.25 207.769531 112.789062 C 207.628906 113.300781 207.277344 113.792969 206.667969 114.261719 Z M 206.015625 113.441406 C 206.363281 113.160156 206.621094 112.859375 206.714844 112.53125 C 206.808594 112.203125 206.761719 111.921875 206.550781 111.640625 C 206.296875 111.316406 205.945312 111.175781 205.546875 111.246094 L 203.933594 112.53125 C 203.769531 112.90625 203.816406 113.253906 204.074219 113.605469 C 204.285156 113.863281 204.542969 113.980469 204.890625 113.957031 C 205.195312 113.980469 205.570312 113.769531 206.015625 113.441406 Z M 206.015625 113.441406 " fill-opacity="1" fill-rule="nonzero"/><path fill="#ffffff" d="M 206.039062 117.324219 L 205.359375 116.480469 L 210.550781 112.367188 L 211.203125 113.183594 Z M 206.039062 117.324219 " fill-opacity="1" fill-rule="nonzero"/><path fill="#ffffff" d="M 208.445312 120.386719 C 208.492188 120.292969 208.585938 120.175781 208.703125 120.035156 C 208.234375 119.988281 207.839844 119.777344 207.535156 119.40625 C 207.253906 119.03125 207.113281 118.65625 207.136719 118.257812 C 207.160156 117.863281 207.324219 117.535156 207.652344 117.300781 C 208.046875 116.996094 208.46875 116.902344 208.890625 117.019531 C 209.335938 117.136719 209.753906 117.464844 210.199219 118.023438 L 210.597656 118.539062 L 210.832031 118.351562 C 211.019531 118.210938 211.136719 118.023438 211.160156 117.816406 C 211.203125 117.605469 211.113281 117.417969 210.949219 117.183594 C 210.808594 116.996094 210.621094 116.878906 210.433594 116.832031 C 210.246094 116.785156 210.082031 116.808594 209.941406 116.925781 L 209.289062 116.109375 C 209.5 115.96875 209.730469 115.875 210.011719 115.875 C 210.292969 115.875 210.574219 115.945312 210.855469 116.109375 C 211.136719 116.25 211.390625 116.457031 211.601562 116.738281 C 211.929688 117.183594 212.117188 117.582031 212.09375 118.023438 C 212.070312 118.46875 211.882812 118.820312 211.484375 119.148438 L 209.824219 120.457031 C 209.5 120.714844 209.265625 120.972656 209.148438 121.203125 L 209.101562 121.25 Z M 208.351562 119.03125 C 208.492188 119.195312 208.632812 119.3125 208.84375 119.382812 C 209.03125 119.453125 209.21875 119.5 209.40625 119.453125 L 210.105469 118.914062 L 209.753906 118.46875 C 209.523438 118.164062 209.289062 117.976562 209.054688 117.910156 C 208.820312 117.839844 208.609375 117.886719 208.421875 118.046875 C 208.28125 118.1875 208.1875 118.328125 208.1875 118.492188 C 208.140625 118.679688 208.1875 118.84375 208.351562 119.03125 Z M 208.351562 119.03125 " fill-opacity="1" fill-rule="nonzero"/><path fill="#ffffff" d="M 213.964844 119.824219 L 213.566406 120.175781 C 214.105469 120.199219 214.546875 120.410156 214.898438 120.855469 C 215.507812 121.625 215.367188 122.351562 214.5 123.050781 L 212.070312 124.96875 L 211.414062 124.152344 L 213.777344 122.257812 C 214.011719 122.070312 214.128906 121.882812 214.175781 121.695312 C 214.222656 121.507812 214.128906 121.296875 213.941406 121.066406 C 213.683594 120.738281 213.332031 120.621094 212.910156 120.691406 L 210.316406 122.75 L 209.660156 121.929688 L 213.332031 119.03125 Z M 213.964844 119.824219 " fill-opacity="1" fill-rule="nonzero"/><path fill="#ffffff" d="M 206.574219 114.332031 C 206.015625 114.773438 205.453125 115.007812 204.914062 115.007812 C 204.378906 115.03125 203.933594 114.796875 203.605469 114.378906 C 203.277344 113.980469 203.160156 113.558594 203.253906 113.089844 L 201.523438 114.472656 L 200.871094 113.652344 L 205.945312 109.632812 L 206.550781 110.378906 L 206.226562 110.707031 C 206.714844 110.707031 207.113281 110.941406 207.441406 111.339844 C 207.792969 111.78125 207.910156 112.25 207.769531 112.789062 C 207.628906 113.300781 207.277344 113.792969 206.667969 114.261719 Z M 206.015625 113.441406 C 206.363281 113.160156 206.621094 112.859375 206.714844 112.53125 C 206.808594 112.203125 206.761719 111.921875 206.550781 111.640625 C 206.296875 111.316406 205.945312 111.175781 205.546875 111.246094 L 203.933594 112.53125 C 203.769531 112.90625 203.816406 113.253906 204.074219 113.605469 C 204.285156 113.863281 204.542969 113.980469 204.890625 113.957031 C 205.195312 113.980469 205.570312 113.769531 206.015625 113.441406 Z M 206.015625 113.441406 " fill-opacity="1" fill-rule="nonzero"/><path fill="#ffffff" d="M 206.039062 117.324219 L 205.359375 116.480469 L 210.550781 112.367188 L 211.203125 113.183594 Z M 206.039062 117.324219 " fill-opacity="1" fill-rule="nonzero"/><path fill="#ffffff" d="M 208.445312 120.386719 C 208.492188 120.292969 208.585938 120.175781 208.703125 120.035156 C 208.234375 119.988281 207.839844 119.777344 207.535156 119.40625 C 207.253906 119.03125 207.113281 118.65625 207.136719 118.257812 C 207.160156 117.863281 207.324219 117.535156 207.652344 117.300781 C 208.046875 116.996094 208.46875 116.902344 208.890625 117.019531 C 209.335938 117.136719 209.753906 117.464844 210.199219 118.023438 L 210.597656 118.539062 L 210.832031 118.351562 C 211.019531 118.210938 211.136719 118.023438 211.160156 117.816406 C 211.203125 117.605469 211.113281 117.417969 210.949219 117.183594 C 210.808594 116.996094 210.621094 116.878906 210.433594 116.832031 C 210.246094 116.785156 210.082031 116.808594 209.941406 116.925781 L 209.289062 116.109375 C 209.5 115.96875 209.730469 115.875 210.011719 115.875 C 210.292969 115.875 210.574219 115.945312 210.855469 116.109375 C 211.136719 116.25 211.390625 116.457031 211.601562 116.738281 C 211.929688 117.183594 212.117188 117.582031 212.09375 118.023438 C 212.070312 118.46875 211.882812 118.820312 211.484375 119.148438 L 209.824219 120.457031 C 209.5 120.714844 209.265625 120.972656 209.148438 121.203125 L 209.101562 121.25 Z M 208.351562 119.03125 C 208.492188 119.195312 208.632812 119.3125 208.84375 119.382812 C 209.03125 119.453125 209.21875 119.5 209.40625 119.453125 L 210.105469 118.914062 L 209.753906 118.46875 C 209.523438 118.164062 209.289062 117.976562 209.054688 117.910156 C 208.820312 117.839844 208.609375 117.886719 208.421875 118.046875 C 208.28125 118.1875 208.1875 118.328125 208.1875 118.492188 C 208.140625 118.679688 208.1875 118.84375 208.351562 119.03125 Z M 208.351562 119.03125 " fill-opacity="1" fill-rule="nonzero"/><path fill="#ffffff" d="M 213.964844 119.824219 L 213.566406 120.175781 C 214.105469 120.199219 214.546875 120.410156 214.898438 120.855469 C 215.507812 121.625 215.367188 122.351562 214.5 123.050781 L 212.070312 124.96875 L 211.414062 124.152344 L 213.777344 122.257812 C 214.011719 122.070312 214.128906 121.882812 214.175781 121.695312 C 214.222656 121.507812 214.128906 121.296875 213.941406 121.066406 C 213.683594 120.738281 213.332031 120.621094 212.910156 120.691406 L 210.316406 122.75 L 209.660156 121.929688 L 213.332031 119.03125 Z M 213.964844 119.824219 " fill-opacity="1" fill-rule="nonzero"/><path fill="#ffffff" d="M 242.113281 151.109375 L 241.71875 151.484375 C 242.277344 151.484375 242.792969 151.71875 243.214844 152.230469 C 243.679688 152.769531 243.796875 153.332031 243.542969 153.867188 C 244.195312 153.820312 244.757812 154.054688 245.226562 154.59375 C 245.597656 155.039062 245.761719 155.480469 245.714844 155.902344 C 245.667969 156.347656 245.386719 156.746094 244.921875 157.164062 L 242.324219 159.410156 L 241.53125 158.5 L 244.101562 156.277344 C 244.335938 156.042969 244.5 155.832031 244.523438 155.644531 C 244.546875 155.433594 244.453125 155.203125 244.21875 154.921875 C 244.054688 154.710938 243.84375 154.59375 243.613281 154.570312 C 243.378906 154.523438 243.167969 154.570312 242.957031 154.664062 L 240.246094 157.023438 L 239.449219 156.113281 L 242.066406 153.867188 C 242.511719 153.449219 242.535156 153.003906 242.136719 152.535156 C 241.8125 152.183594 241.460938 152.046875 241.015625 152.136719 L 238.210938 154.59375 L 237.414062 153.679688 L 241.390625 150.269531 Z M 242.113281 151.109375 " fill-opacity="1" fill-rule="nonzero"/><path fill="#ffffff" d="M 245.085938 158.429688 C 245.457031 158.101562 245.878906 157.84375 246.300781 157.703125 C 246.746094 157.5625 247.164062 157.5625 247.585938 157.703125 C 248.007812 157.84375 248.382812 158.078125 248.707031 158.429688 C 249.199219 158.964844 249.433594 159.550781 249.386719 160.179688 C 249.339844 160.8125 249.082031 161.398438 248.566406 161.957031 L 248.359375 162.144531 C 247.984375 162.496094 247.5625 162.730469 247.140625 162.871094 C 246.722656 163.011719 246.277344 163.011719 245.855469 162.871094 C 245.433594 162.730469 245.0625 162.496094 244.734375 162.144531 C 244.21875 161.609375 244.007812 160.976562 244.054688 160.320312 C 244.101562 159.667969 244.429688 159.035156 245.039062 158.5 Z M 245.808594 159.386719 C 245.410156 159.738281 245.179688 160.113281 245.109375 160.507812 C 245.039062 160.882812 245.15625 161.234375 245.410156 161.515625 C 245.691406 161.816406 246.019531 161.957031 246.394531 161.886719 C 246.769531 161.839844 247.1875 161.632812 247.609375 161.210938 C 248.007812 160.859375 248.242188 160.484375 248.3125 160.089844 C 248.382812 159.691406 248.265625 159.363281 248.007812 159.082031 C 247.75 158.800781 247.421875 158.660156 247.046875 158.707031 C 246.675781 158.753906 246.277344 158.964844 245.808594 159.386719 Z M 245.808594 159.386719 " fill-opacity="1" fill-rule="nonzero"/><path fill="#ffffff" d="M 251.796875 161.839844 L 251.375 162.285156 C 251.980469 162.238281 252.519531 162.425781 252.964844 162.917969 C 253.734375 163.710938 253.6875 164.554688 252.824219 165.441406 L 250.367188 167.875 L 249.527344 167.03125 L 251.886719 164.648438 C 252.121094 164.414062 252.238281 164.203125 252.261719 163.96875 C 252.285156 163.757812 252.167969 163.523438 251.933594 163.292969 C 251.609375 162.964844 251.1875 162.847656 250.71875 162.964844 L 248.054688 165.582031 L 247.210938 164.742188 L 250.929688 161.070312 Z M 251.796875 161.839844 " fill-opacity="1" fill-rule="nonzero"/><path fill="#ffffff" d="M 252.238281 169.652344 L 251.375 168.832031 L 255 165.046875 L 255.863281 165.863281 Z M 255.863281 163.992188 C 256.003906 163.851562 256.121094 163.78125 256.308594 163.78125 C 256.496094 163.78125 256.636719 163.851562 256.796875 164.015625 C 256.9375 164.15625 257.03125 164.320312 257.03125 164.484375 C 257.03125 164.648438 256.984375 164.8125 256.84375 164.929688 C 256.703125 165.066406 256.589844 165.113281 256.402344 165.113281 C 256.214844 165.113281 256.074219 165.046875 255.910156 164.882812 C 255.769531 164.742188 255.675781 164.578125 255.675781 164.414062 C 255.675781 164.25 255.746094 164.109375 255.863281 163.992188 Z M 255.863281 163.992188 " fill-opacity="1" fill-rule="nonzero"/><path fill="#ffffff" d="M 258.761719 166.773438 L 257.921875 167.710938 L 258.621094 168.339844 L 258.039062 168.972656 L 257.335938 168.339844 L 255.371094 170.515625 C 255.230469 170.65625 255.160156 170.796875 255.160156 170.914062 C 255.160156 171.03125 255.230469 171.148438 255.394531 171.3125 C 255.488281 171.40625 255.628906 171.476562 255.722656 171.546875 L 255.113281 172.222656 C 254.882812 172.082031 254.648438 171.941406 254.460938 171.777344 C 253.78125 171.148438 253.757812 170.46875 254.4375 169.746094 L 256.425781 167.546875 L 255.769531 166.960938 L 256.355469 166.332031 L 257.007812 166.914062 L 257.851562 165.980469 Z M 258.761719 166.773438 " fill-opacity="1" fill-rule="nonzero"/><path fill="#ffffff" d="M 257.289062 170.65625 C 257.617188 170.257812 257.992188 169.953125 258.410156 169.769531 C 258.832031 169.582031 259.253906 169.535156 259.699219 169.582031 C 260.140625 169.628906 260.515625 169.816406 260.914062 170.117188 C 261.476562 170.5625 261.777344 171.125 261.847656 171.753906 C 261.894531 172.386719 261.707031 173.019531 261.289062 173.625 L 261.125 173.859375 C 260.796875 174.257812 260.421875 174.5625 260 174.75 C 259.582031 174.933594 259.183594 174.980469 258.738281 174.933594 C 258.292969 174.886719 257.898438 174.703125 257.523438 174.375 C 256.9375 173.90625 256.613281 173.34375 256.589844 172.667969 C 256.542969 172.011719 256.773438 171.359375 257.3125 170.703125 Z M 258.15625 171.523438 C 257.828125 171.941406 257.640625 172.339844 257.617188 172.738281 C 257.59375 173.113281 257.757812 173.4375 258.0625 173.695312 C 258.386719 173.929688 258.714844 174.023438 259.089844 173.929688 C 259.464844 173.835938 259.816406 173.554688 260.210938 173.089844 C 260.539062 172.667969 260.726562 172.269531 260.75 171.871094 C 260.773438 171.476562 260.609375 171.171875 260.304688 170.914062 C 260 170.679688 259.675781 170.585938 259.300781 170.679688 C 258.925781 170.75 258.550781 171.03125 258.15625 171.523438 Z M 258.15625 171.523438 " fill-opacity="1" fill-rule="nonzero"/><path fill="#ffffff" d="M 265.238281 174.726562 C 265.121094 174.609375 265.003906 174.515625 264.863281 174.421875 C 264.421875 174.117188 263.976562 174.09375 263.601562 174.328125 L 261.613281 177.296875 L 260.609375 176.640625 L 263.507812 172.269531 L 264.46875 172.902344 L 264.164062 173.414062 C 264.65625 173.183594 265.121094 173.226562 265.542969 173.507812 C 265.683594 173.601562 265.777344 173.695312 265.871094 173.789062 Z M 265.238281 174.726562 " fill-opacity="1" fill-rule="nonzero"/><path fill="#5a2d83" d="M 147.726562 164.085938 C 143.914062 161.75 140.570312 158.683594 137.859375 154.96875 C 137.8125 154.898438 137.742188 154.828125 137.71875 154.734375 C 137.484375 154.40625 137.273438 154.101562 137.039062 153.75 C 137.039062 153.75 137.039062 153.726562 137.015625 153.726562 C 135.730469 151.8125 134.65625 149.707031 133.742188 147.484375 L 133.71875 147.484375 C 132.105469 143.488281 131.21875 139.113281 131.21875 134.554688 C 131.21875 124.058594 135.917969 114.636719 143.328125 108.273438 L 128.667969 107.292969 L 129.605469 93.125 C 118.078125 103.226562 110.78125 118.046875 110.78125 134.554688 C 110.78125 145.195312 113.820312 155.132812 119.058594 163.570312 C 119.105469 163.617188 119.128906 163.6875 119.175781 163.734375 C 119.503906 164.273438 119.878906 164.835938 120.226562 165.347656 C 120.367188 165.558594 120.507812 165.746094 120.648438 165.957031 C 120.90625 166.355469 121.1875 166.726562 121.46875 167.101562 C 121.679688 167.40625 121.910156 167.6875 122.121094 167.96875 C 122.238281 168.109375 122.355469 168.273438 122.472656 168.410156 C 126.984375 174.1875 132.574219 178.933594 138.792969 182.464844 L 152.449219 177.765625 Z M 147.726562 164.085938 " fill-opacity="1" fill-rule="nonzero"/><path fill="#90bf3f" d="M 165.890625 189.710938 C 166.007812 189.710938 166.125 189.710938 166.21875 189.710938 C 165.984375 189.710938 165.703125 189.710938 165.472656 189.710938 C 165.613281 189.6875 165.75 189.710938 165.890625 189.710938 Z M 165.890625 189.710938 " fill-opacity="1" fill-rule="nonzero"/><path fill="#90bf3f" d="M 166.148438 169.253906 C 166.59375 169.253906 167.0625 169.230469 167.480469 169.207031 C 167.0625 169.253906 166.59375 169.253906 166.148438 169.253906 Z M 166.148438 169.253906 " fill-opacity="1" fill-rule="nonzero"/><path fill="#90bf3f" d="M 164.933594 189.6875 C 164.535156 189.6875 164.160156 189.664062 163.765625 189.640625 C 164.160156 189.664062 164.535156 189.6875 164.933594 189.6875 Z M 164.933594 189.6875 " fill-opacity="1" fill-rule="nonzero"/><path fill="#90bf3f" d="M 167.433594 189.664062 C 167.296875 189.664062 167.15625 189.664062 166.992188 189.6875 C 167.15625 189.6875 167.296875 189.6875 167.433594 189.664062 Z M 167.433594 189.664062 " fill-opacity="1" fill-rule="nonzero"/><path fill="#90bf3f" d="M 165.703125 169.277344 C 165.285156 169.277344 164.886719 169.253906 164.488281 169.230469 C 164.910156 169.253906 165.308594 169.253906 165.703125 169.277344 Z M 165.703125 169.277344 " fill-opacity="1" fill-rule="nonzero"/><path fill="#40a1cf" d="M 168.464844 189.617188 C 168.136719 189.640625 167.785156 189.640625 167.457031 189.664062 C 167.761719 189.664062 168.113281 189.640625 168.464844 189.617188 Z M 168.464844 189.617188 " fill-opacity="1" fill-rule="nonzero"/><path fill="#40a1cf" d="M 151.277344 166.003906 C 155.324219 167.898438 159.789062 169.042969 164.488281 169.253906 C 159.90625 169.019531 155.394531 167.921875 151.277344 166.003906 Z M 151.277344 166.003906 " fill-opacity="1" fill-rule="nonzero"/><path fill="#40a1cf" d="M 166.148438 169.253906 C 166.007812 169.253906 165.867188 169.253906 165.703125 169.253906 C 165.75 169.253906 165.84375 169.253906 165.890625 169.253906 C 165.984375 169.277344 166.054688 169.277344 166.148438 169.253906 Z M 166.148438 169.253906 " fill-opacity="1" fill-rule="nonzero"/><path fill="#90bf3f" d="M 242.511719 98.851562 L 191.636719 157.5625 L 188.78125 160.601562 C 183.078125 165.628906 175.6875 168.808594 167.621094 169.207031 C 167.574219 169.207031 167.550781 169.207031 167.503906 169.207031 C 167.0625 169.230469 166.59375 169.253906 166.171875 169.253906 C 166.101562 169.253906 166.007812 169.253906 165.9375 169.253906 C 165.890625 169.253906 165.796875 169.253906 165.75 169.253906 C 165.332031 169.253906 164.933594 169.230469 164.535156 169.207031 C 159.835938 169.019531 155.371094 167.898438 151.324219 165.980469 L 155.976562 179.496094 L 142.207031 184.242188 C 148.941406 187.445312 156.28125 189.316406 163.8125 189.617188 L 163.835938 189.617188 C 164.230469 189.640625 164.605469 189.640625 165.003906 189.664062 C 165.191406 189.664062 165.378906 189.664062 165.542969 189.664062 C 165.773438 189.664062 166.054688 189.664062 166.289062 189.664062 C 166.523438 189.664062 166.804688 189.664062 167.039062 189.664062 C 167.179688 189.664062 167.316406 189.664062 167.480469 189.640625 C 167.808594 189.617188 168.160156 189.617188 168.488281 189.59375 C 168.535156 189.59375 168.582031 189.59375 168.628906 189.59375 C 174.589844 189.316406 180.621094 188.050781 186.46875 185.691406 C 192.40625 183.304688 197.808594 179.914062 202.507812 175.707031 L 205.101562 172.972656 L 216.769531 159.621094 L 224.859375 150.199219 L 224.929688 150.292969 L 238.632812 134.578125 L 238.515625 134.4375 L 255.957031 114.097656 C 256.191406 113.792969 256.402344 113.488281 256.636719 113.183594 L 256.84375 99.039062 Z M 242.511719 98.851562 " fill-opacity="1" fill-rule="nonzero"/><path fill="#1e478b" d="M 305.082031 83.539062 C 298.253906 80.730469 290.933594 79.351562 283.664062 79.421875 L 283.382812 79.445312 L 283.453125 79.539062 C 268.347656 79.703125 254.695312 85.992188 244.828125 96.023438 L 244.640625 96.234375 L 259.769531 96.46875 L 259.558594 110.144531 C 265.824219 103.832031 274.5 99.953125 284.085938 99.953125 C 288.878906 99.953125 293.460938 100.933594 297.621094 102.710938 L 308.589844 96.863281 Z M 305.082031 83.539062 " fill-opacity="1" fill-rule="nonzero"/><path fill="#1e478b" d="M 300.941406 104.324219 C 302.4375 105.164062 303.886719 106.125 305.246094 107.175781 L 308.097656 109.632812 C 314.550781 115.851562 318.59375 124.5 318.734375 134.113281 C 318.734375 134.113281 318.570312 140.9375 317.074219 145.289062 L 322.382812 157.65625 L 336.550781 151.34375 C 338.234375 146.058594 339.148438 140.425781 339.148438 134.578125 C 339.148438 131.867188 338.609375 126.535156 338.609375 126.535156 C 336.972656 115.171875 331.78125 104.230469 323.085938 95.507812 C 318.78125 91.207031 313.964844 87.792969 308.820312 85.199219 L 311.953125 98.410156 Z M 300.941406 104.324219 " fill-opacity="1" fill-rule="nonzero"/><path fill="#1e478b" d="M 335.265625 154.992188 C 332.601562 161.816406 328.484375 168.203125 322.992188 173.695312 C 313.589844 183.09375 301.644531 188.355469 289.367188 189.546875 C 289.367188 189.546875 282.636719 190.15625 278.964844 189.546875 L 270.195312 177.34375 L 281.230469 169.253906 C 281.957031 169.300781 282.820312 169.277344 284.109375 169.277344 C 293.484375 169.277344 302.042969 165.652344 308.285156 159.550781 C 308.285156 159.550781 308.449219 159.363281 308.566406 159.246094 C 309.382812 158.429688 310.109375 157.609375 310.832031 156.746094 L 310.832031 156.652344 C 312.796875 154.289062 314.457031 151.648438 315.71875 148.796875 L 321.097656 161.234375 Z M 335.265625 154.992188 " fill-opacity="1" fill-rule="nonzero"/><path fill="#ffffff" d="M 154.832031 94.550781 C 155.066406 94.480469 155.277344 94.339844 155.394531 94.152344 C 155.511719 93.964844 155.535156 93.753906 155.511719 93.523438 L 156.445312 93.242188 C 156.515625 93.523438 156.492188 93.800781 156.398438 94.105469 C 156.304688 94.386719 156.140625 94.644531 155.910156 94.878906 C 155.675781 95.113281 155.394531 95.25 155.066406 95.34375 C 154.433594 95.53125 153.875 95.484375 153.382812 95.183594 C 152.890625 94.878906 152.566406 94.363281 152.332031 93.660156 L 152.285156 93.546875 C 152.074219 92.867188 152.097656 92.257812 152.332031 91.746094 C 152.566406 91.230469 153.007812 90.878906 153.640625 90.691406 C 154.179688 90.550781 154.644531 90.550781 155.066406 90.761719 C 155.511719 90.972656 155.792969 91.324219 155.953125 91.839844 L 155.019531 92.117188 C 154.925781 91.886719 154.785156 91.675781 154.574219 91.558594 C 154.363281 91.441406 154.132812 91.417969 153.875 91.511719 C 153.546875 91.605469 153.335938 91.792969 153.242188 92.09375 C 153.125 92.375 153.148438 92.773438 153.289062 93.242188 L 153.335938 93.40625 C 153.476562 93.894531 153.664062 94.222656 153.921875 94.410156 C 154.203125 94.621094 154.503906 94.667969 154.832031 94.550781 Z M 154.832031 94.550781 " fill-opacity="1" fill-rule="nonzero"/><path fill="#ffffff" d="M 156.890625 92.304688 C 156.820312 91.863281 156.84375 91.441406 156.9375 91.042969 C 157.054688 90.644531 157.265625 90.316406 157.546875 90.085938 C 157.824219 89.851562 158.175781 89.664062 158.621094 89.59375 C 159.25 89.476562 159.789062 89.59375 160.234375 89.921875 C 160.679688 90.25 160.980469 90.738281 161.144531 91.417969 L 161.191406 91.652344 C 161.261719 92.09375 161.238281 92.515625 161.144531 92.914062 C 161.027344 93.3125 160.816406 93.613281 160.539062 93.871094 C 160.257812 94.105469 159.882812 94.292969 159.460938 94.363281 C 158.832031 94.480469 158.246094 94.339844 157.777344 93.988281 C 157.3125 93.636719 157.03125 93.078125 156.890625 92.351562 Z M 157.964844 92.210938 C 158.035156 92.679688 158.199219 93.03125 158.457031 93.265625 C 158.691406 93.5 158.996094 93.589844 159.34375 93.523438 C 159.695312 93.476562 159.953125 93.289062 160.09375 92.984375 C 160.234375 92.679688 160.257812 92.257812 160.1875 91.746094 C 160.117188 91.277344 159.953125 90.925781 159.695312 90.691406 C 159.460938 90.457031 159.160156 90.363281 158.808594 90.433594 C 158.480469 90.480469 158.222656 90.667969 158.082031 90.972656 C 157.894531 91.253906 157.871094 91.675781 157.964844 92.210938 Z M 157.964844 92.210938 " fill-opacity="1" fill-rule="nonzero"/><path fill="#ffffff" d="M 161.988281 91.488281 C 161.941406 90.761719 162.105469 90.179688 162.410156 89.734375 C 162.734375 89.289062 163.15625 89.03125 163.71875 89.007812 C 164.207031 88.984375 164.628906 89.148438 164.933594 89.453125 L 164.816406 87.066406 L 165.867188 87.023438 L 166.195312 93.636719 L 165.261719 93.683594 L 165.191406 93.195312 C 164.886719 93.589844 164.488281 93.800781 163.976562 93.824219 C 163.4375 93.847656 162.96875 93.660156 162.617188 93.21875 C 162.222656 92.84375 162.035156 92.234375 161.988281 91.488281 Z M 163.039062 91.535156 C 163.0625 92 163.179688 92.375 163.367188 92.632812 C 163.554688 92.890625 163.8125 93.007812 164.160156 92.984375 C 164.605469 92.960938 164.886719 92.75 165.074219 92.351562 L 164.980469 90.363281 C 164.769531 90.015625 164.441406 89.828125 164.023438 89.851562 C 163.695312 89.875 163.414062 90.015625 163.25 90.296875 C 163.085938 90.574219 162.992188 90.996094 163.039062 91.535156 Z M 163.039062 91.535156 " fill-opacity="1" fill-rule="nonzero"/><path fill="#ffffff" d="M 169.140625 93.894531 C 168.488281 93.847656 167.949219 93.589844 167.574219 93.171875 C 167.203125 92.726562 167.039062 92.164062 167.0625 91.464844 L 167.0625 91.324219 C 167.109375 90.855469 167.203125 90.457031 167.410156 90.109375 C 167.621094 89.757812 167.878906 89.476562 168.230469 89.289062 C 168.558594 89.101562 168.953125 89.03125 169.351562 89.054688 C 169.984375 89.101562 170.476562 89.335938 170.777344 89.78125 C 171.105469 90.226562 171.222656 90.785156 171.175781 91.535156 L 171.128906 91.953125 L 168.089844 91.746094 C 168.089844 92.140625 168.207031 92.445312 168.417969 92.679688 C 168.628906 92.914062 168.910156 93.054688 169.234375 93.078125 C 169.703125 93.125 170.125 92.9375 170.453125 92.5625 L 170.988281 93.148438 C 170.777344 93.40625 170.523438 93.613281 170.195312 93.753906 C 169.890625 93.871094 169.539062 93.941406 169.140625 93.894531 Z M 169.28125 89.898438 C 169 89.875 168.746094 89.945312 168.558594 90.132812 C 168.371094 90.316406 168.230469 90.574219 168.160156 90.949219 L 170.148438 91.089844 L 170.148438 91.019531 C 170.148438 90.667969 170.078125 90.386719 169.914062 90.203125 C 169.796875 90.039062 169.585938 89.921875 169.28125 89.898438 Z M 169.28125 89.898438 " fill-opacity="1" fill-rule="nonzero"/><path fill="#ffffff" d="M 123.199219 146.457031 C 123.875 146.222656 124.484375 146.199219 125 146.363281 C 125.511719 146.527344 125.839844 146.902344 126.027344 147.414062 C 126.191406 147.953125 126.167969 148.398438 125.886719 148.816406 L 126.378906 148.703125 L 126.683594 149.613281 L 120.390625 151.71875 L 120.066406 150.710938 L 122.332031 149.941406 C 121.886719 149.777344 121.609375 149.425781 121.421875 148.957031 C 121.234375 148.421875 121.28125 147.929688 121.585938 147.484375 C 121.886719 147.042969 122.402344 146.691406 123.105469 146.457031 Z M 123.433594 147.460938 C 122.964844 147.625 122.613281 147.8125 122.425781 148.09375 C 122.238281 148.328125 122.191406 148.632812 122.308594 148.957031 C 122.449219 149.402344 122.753906 149.636719 123.175781 149.683594 L 125 149.050781 C 125.324219 148.75 125.417969 148.375 125.253906 147.929688 C 125.136719 147.625 124.953125 147.414062 124.671875 147.320312 C 124.390625 147.226562 123.992188 147.273438 123.523438 147.414062 Z M 123.433594 147.460938 " fill-opacity="1" fill-rule="nonzero"/><path fill="#ffffff" d="M 124.179688 142.363281 C 124.601562 142.597656 124.859375 142.996094 124.976562 143.535156 C 125.066406 144.023438 125.023438 144.445312 124.765625 144.75 C 124.53125 145.078125 124.132812 145.289062 123.570312 145.382812 L 120.625 146.011719 L 120.414062 144.984375 L 123.363281 144.375 C 123.945312 144.257812 124.179688 143.953125 124.085938 143.464844 C 123.96875 142.972656 123.734375 142.667969 123.339844 142.550781 L 120.066406 143.230469 L 119.855469 142.203125 L 124.4375 141.265625 L 124.648438 142.226562 Z M 124.179688 142.363281 " fill-opacity="1" fill-rule="nonzero"/><path fill="#ffffff" d="M 118.476562 141.03125 C 118.335938 141.054688 118.171875 141.007812 118.054688 140.914062 C 117.9375 140.820312 117.867188 140.679688 117.84375 140.496094 C 117.820312 140.308594 117.867188 140.167969 117.960938 140.050781 C 118.054688 139.933594 118.195312 139.863281 118.335938 139.839844 C 118.476562 139.816406 118.636719 139.863281 118.753906 139.957031 C 118.871094 140.050781 118.941406 140.191406 118.964844 140.378906 C 118.988281 140.566406 118.941406 140.703125 118.847656 140.820312 C 118.753906 140.9375 118.636719 141.007812 118.476562 141.03125 Z M 124.203125 139.230469 L 124.34375 140.261719 L 119.714844 140.796875 L 119.574219 139.769531 Z M 124.203125 139.230469 " fill-opacity="1" fill-rule="nonzero"/><path fill="#ffffff" d="M 124.015625 137.058594 L 124.085938 138.109375 L 117.46875 138.53125 L 117.398438 137.476562 Z M 124.015625 137.058594 " fill-opacity="1" fill-rule="nonzero"/><path fill="#ffffff" d="M 121.5625 136.191406 C 120.835938 136.167969 120.25 136.003906 119.855469 135.65625 C 119.410156 135.328125 119.222656 134.859375 119.222656 134.296875 C 119.246094 133.808594 119.410156 133.410156 119.761719 133.105469 L 117.375 133.058594 L 117.398438 132.007812 L 124.015625 132.148438 L 123.992188 133.082031 L 123.5 133.128906 C 123.875 133.457031 124.039062 133.878906 124.039062 134.390625 C 124.015625 134.929688 123.804688 135.375 123.339844 135.703125 C 122.917969 136.050781 122.308594 136.214844 121.5625 136.191406 Z M 121.679688 135.164062 C 122.144531 135.1875 122.519531 135.09375 122.800781 134.929688 C 123.058594 134.765625 123.222656 134.484375 123.222656 134.160156 C 123.246094 133.714844 123.058594 133.410156 122.683594 133.199219 L 120.695312 133.152344 C 120.320312 133.339844 120.136719 133.644531 120.113281 134.066406 C 120.113281 134.390625 120.226562 134.671875 120.484375 134.859375 C 120.71875 135.046875 121.140625 135.140625 121.679688 135.164062 Z M 121.679688 135.164062 " fill-opacity="1" fill-rule="nonzero"/><path fill="#ffffff" d="M 321.378906 110.097656 C 321.984375 109.703125 322.546875 109.515625 323.085938 109.5625 C 323.621094 109.609375 324.066406 109.839844 324.371094 110.308594 C 324.652344 110.730469 324.722656 111.152344 324.605469 111.59375 L 326.589844 110.285156 L 327.175781 111.152344 L 321.660156 114.820312 L 321.121094 114.027344 L 321.496094 113.722656 C 321.003906 113.675781 320.605469 113.417969 320.324219 113 C 320.023438 112.554688 319.976562 112.0625 320.136719 111.523438 C 320.347656 110.988281 320.746094 110.519531 321.378906 110.097656 Z M 321.890625 111.011719 C 321.496094 111.269531 321.238281 111.546875 321.121094 111.851562 C 321.003906 112.15625 321.027344 112.4375 321.214844 112.71875 C 321.449219 113.066406 321.773438 113.230469 322.21875 113.183594 L 323.878906 112.0625 C 324.089844 111.6875 324.066406 111.339844 323.832031 110.964844 C 323.644531 110.683594 323.386719 110.519531 323.0625 110.519531 C 322.710938 110.589844 322.335938 110.730469 321.890625 111.011719 Z M 321.890625 111.011719 " fill-opacity="1" fill-rule="nonzero"/><path fill="#ffffff" d="M 322.992188 117.488281 C 322.6875 116.902344 322.640625 116.316406 322.828125 115.757812 C 323.015625 115.195312 323.410156 114.75 324.042969 114.449219 L 324.160156 114.402344 C 324.582031 114.191406 324.976562 114.074219 325.398438 114.074219 C 325.820312 114.074219 326.171875 114.167969 326.523438 114.355469 C 326.847656 114.542969 327.105469 114.820312 327.292969 115.171875 C 327.574219 115.734375 327.621094 116.273438 327.410156 116.761719 C 327.199219 117.253906 326.777344 117.675781 326.101562 118 L 325.726562 118.1875 L 324.347656 115.453125 C 324.019531 115.664062 323.808594 115.898438 323.714844 116.203125 C 323.621094 116.503906 323.644531 116.808594 323.785156 117.113281 C 324.019531 117.558594 324.347656 117.816406 324.839844 117.910156 L 324.605469 118.65625 C 324.277344 118.609375 323.972656 118.492188 323.691406 118.28125 C 323.363281 118.117188 323.15625 117.839844 322.992188 117.488281 Z M 326.5 115.59375 C 326.359375 115.335938 326.171875 115.171875 325.914062 115.101562 C 325.65625 115.03125 325.351562 115.054688 325 115.171875 L 325.914062 116.972656 L 325.984375 116.925781 C 326.289062 116.738281 326.476562 116.550781 326.566406 116.316406 C 326.660156 116.085938 326.636719 115.828125 326.5 115.59375 Z M 326.5 115.59375 " fill-opacity="1" fill-rule="nonzero"/><path fill="#ffffff" d="M 327.714844 122.773438 C 327.035156 123.003906 326.429688 123.074219 325.914062 122.910156 C 325.398438 122.75 325.046875 122.398438 324.863281 121.90625 C 324.699219 121.414062 324.722656 120.996094 324.910156 120.574219 L 322.828125 121.320312 L 322.476562 120.339844 L 328.53125 118.117188 L 328.859375 119.03125 L 328.414062 119.242188 C 328.859375 119.40625 329.1875 119.730469 329.375 120.222656 C 329.5625 120.761719 329.515625 121.25 329.234375 121.695312 C 328.953125 122.140625 328.4375 122.515625 327.738281 122.75 Z M 327.433594 121.765625 C 327.878906 121.601562 328.179688 121.390625 328.367188 121.136719 C 328.554688 120.878906 328.601562 120.574219 328.484375 120.246094 C 328.34375 119.847656 328.066406 119.613281 327.667969 119.566406 L 325.726562 120.292969 C 325.445312 120.597656 325.398438 120.949219 325.539062 121.34375 C 325.65625 121.671875 325.867188 121.859375 326.171875 121.953125 C 326.5 122 326.917969 121.953125 327.433594 121.765625 Z M 327.433594 121.765625 " fill-opacity="1" fill-rule="nonzero"/><path fill="#ffffff" d="M 326.007812 125.390625 L 325.726562 124.386719 L 332.132812 122.65625 L 332.414062 123.660156 Z M 326.007812 125.390625 " fill-opacity="1" fill-rule="nonzero"/><path fill="#ffffff" d="M 328.578125 125.742188 C 329.023438 125.671875 329.445312 125.695312 329.839844 125.789062 C 330.238281 125.90625 330.566406 126.113281 330.800781 126.394531 C 331.035156 126.675781 331.222656 127.027344 331.292969 127.449219 C 331.410156 128.078125 331.292969 128.617188 330.964844 129.0625 C 330.636719 129.503906 330.144531 129.808594 329.492188 129.972656 L 329.257812 130.019531 C 328.8125 130.089844 328.390625 130.089844 327.996094 129.972656 C 327.597656 129.855469 327.269531 129.667969 327.035156 129.363281 C 326.800781 129.085938 326.613281 128.734375 326.546875 128.289062 C 326.429688 127.660156 326.546875 127.074219 326.917969 126.605469 C 327.269531 126.136719 327.832031 125.835938 328.53125 125.71875 Z M 328.695312 126.769531 C 328.226562 126.863281 327.878906 127.003906 327.644531 127.261719 C 327.410156 127.496094 327.316406 127.796875 327.386719 128.148438 C 327.433594 128.5 327.621094 128.757812 327.925781 128.875 C 328.226562 128.992188 328.648438 129.039062 329.164062 128.945312 C 329.632812 128.875 329.980469 128.710938 330.214844 128.453125 C 330.449219 128.21875 330.542969 127.914062 330.472656 127.566406 C 330.425781 127.238281 330.238281 126.980469 329.933594 126.839844 C 329.65625 126.722656 329.234375 126.675781 328.695312 126.769531 Z M 328.695312 126.769531 " fill-opacity="1" fill-rule="nonzero"/><path fill="#ffffff" d="M 328.671875 132.636719 L 331.898438 133.363281 L 331.96875 134.484375 L 326.5 132.988281 C 325.679688 132.753906 325.28125 132.289062 325.234375 131.609375 C 325.210938 131.46875 325.234375 131.28125 325.28125 131.09375 L 326.101562 131.046875 L 326.101562 131.257812 C 326.125 131.515625 326.171875 131.703125 326.289062 131.84375 C 326.40625 131.984375 326.566406 132.078125 326.800781 132.125 L 327.222656 132.265625 L 331.734375 130.324219 L 331.804688 131.445312 Z M 328.671875 132.636719 " fill-opacity="1" fill-rule="nonzero"/><path fill="#ffffff" d="M 287.101562 179.566406 C 287.03125 179.074219 287.054688 178.605469 287.195312 178.160156 C 287.335938 177.71875 287.566406 177.390625 287.894531 177.109375 C 288.222656 176.851562 288.621094 176.664062 289.089844 176.59375 C 289.765625 176.476562 290.375 176.640625 290.863281 177.015625 C 291.355469 177.390625 291.683594 177.929688 291.824219 178.675781 L 291.871094 178.933594 C 291.941406 179.449219 291.917969 179.890625 291.777344 180.335938 C 291.636719 180.757812 291.425781 181.109375 291.074219 181.363281 C 290.75 181.621094 290.351562 181.808594 289.882812 181.878906 C 289.160156 181.996094 288.574219 181.832031 288.058594 181.433594 C 287.546875 181.015625 287.242188 180.429688 287.125 179.636719 L 287.125 179.566406 Z M 288.246094 179.496094 C 288.316406 180.03125 288.480469 180.40625 288.761719 180.6875 C 289.019531 180.945312 289.34375 181.039062 289.71875 180.992188 C 290.09375 180.945312 290.375 180.757812 290.539062 180.40625 C 290.703125 180.054688 290.75 179.613281 290.65625 179.027344 C 290.585938 178.511719 290.421875 178.113281 290.140625 177.859375 C 289.882812 177.601562 289.554688 177.484375 289.179688 177.53125 C 288.808594 177.578125 288.550781 177.765625 288.363281 178.113281 C 288.199219 178.441406 288.152344 178.886719 288.246094 179.496094 Z M 288.246094 179.496094 " fill-opacity="1" fill-rule="nonzero"/><path fill="#ffffff" d="M 297.226562 177.507812 C 297.433594 178.277344 297.433594 178.933594 297.203125 179.496094 C 296.96875 180.03125 296.570312 180.40625 295.984375 180.570312 C 295.449219 180.710938 294.957031 180.664062 294.535156 180.40625 L 295.191406 182.769531 L 294.066406 183.070312 L 292.175781 176.222656 L 293.179688 175.941406 L 293.367188 176.429688 C 293.578125 175.941406 293.976562 175.613281 294.535156 175.472656 C 295.144531 175.308594 295.679688 175.402344 296.125 175.753906 C 296.59375 176.105469 296.945312 176.664062 297.15625 177.484375 Z M 296.078125 177.71875 C 295.9375 177.226562 295.75 176.851562 295.449219 176.617188 C 295.167969 176.386719 294.839844 176.316406 294.488281 176.410156 C 294.046875 176.546875 293.765625 176.804688 293.671875 177.226562 L 294.277344 179.425781 C 294.582031 179.75 294.980469 179.867188 295.425781 179.726562 C 295.773438 179.636719 296.007812 179.402344 296.148438 179.074219 C 296.289062 178.746094 296.265625 178.300781 296.078125 177.71875 Z M 296.078125 177.71875 " fill-opacity="1" fill-rule="nonzero"/><path fill="#ffffff" d="M 301.339844 178.675781 C 300.660156 178.957031 300.03125 178.980469 299.445312 178.722656 C 298.839844 178.488281 298.417969 178 298.113281 177.273438 L 298.066406 177.132812 C 297.878906 176.664062 297.785156 176.199219 297.832031 175.753906 C 297.878906 175.308594 297.996094 174.910156 298.253906 174.5625 C 298.488281 174.234375 298.816406 173.953125 299.234375 173.789062 C 299.867188 173.53125 300.453125 173.53125 300.988281 173.789062 C 301.527344 174.046875 301.925781 174.5625 302.226562 175.308594 L 302.390625 175.753906 L 299.28125 177.039062 C 299.46875 177.414062 299.726562 177.671875 300.054688 177.8125 C 300.382812 177.953125 300.707031 177.953125 301.058594 177.789062 C 301.550781 177.578125 301.878906 177.226562 301.996094 176.6875 L 302.8125 177.015625 C 302.742188 177.367188 302.578125 177.695312 302.320312 178 C 302.066406 178.300781 301.738281 178.511719 301.339844 178.675781 Z M 299.539062 174.679688 C 299.234375 174.796875 299.046875 175.003906 298.953125 175.285156 C 298.863281 175.566406 298.863281 175.894531 298.953125 176.292969 L 300.988281 175.449219 L 300.941406 175.378906 C 300.777344 175.050781 300.566406 174.796875 300.3125 174.679688 C 300.101562 174.539062 299.84375 174.539062 299.539062 174.679688 Z M 299.539062 174.679688 " fill-opacity="1" fill-rule="nonzero"/><path fill="#ffffff" d="M 304.824219 172.457031 C 304.683594 172.503906 304.519531 172.550781 304.378906 172.621094 C 303.910156 172.855469 303.679688 173.179688 303.679688 173.625 L 305.222656 176.757812 L 304.191406 177.273438 L 301.925781 172.667969 L 302.90625 172.175781 L 303.1875 172.691406 C 303.234375 172.152344 303.492188 171.800781 303.933594 171.566406 C 304.074219 171.5 304.214844 171.453125 304.332031 171.453125 Z M 304.824219 172.457031 " fill-opacity="1" fill-rule="nonzero"/><path fill="#ffffff" d="M 310.015625 174.234375 C 309.921875 174.1875 309.804688 174.070312 309.664062 173.882812 C 309.523438 174.398438 309.242188 174.796875 308.773438 175.050781 C 308.332031 175.308594 307.886719 175.378906 307.464844 175.285156 C 307.023438 175.191406 306.71875 174.957031 306.507812 174.585938 C 306.25 174.117188 306.203125 173.648438 306.414062 173.179688 C 306.625 172.738281 307.046875 172.316406 307.722656 171.941406 L 308.355469 171.589844 L 308.191406 171.289062 C 308.050781 171.054688 307.886719 170.914062 307.675781 170.84375 C 307.464844 170.796875 307.230469 170.820312 306.953125 170.984375 C 306.71875 171.125 306.578125 171.289062 306.484375 171.476562 C 306.414062 171.660156 306.414062 171.847656 306.53125 172.035156 L 305.523438 172.597656 C 305.386719 172.363281 305.339844 172.058594 305.386719 171.777344 C 305.429688 171.476562 305.546875 171.171875 305.757812 170.890625 C 305.96875 170.609375 306.25 170.351562 306.578125 170.164062 C 307.113281 169.863281 307.582031 169.746094 308.050781 169.839844 C 308.496094 169.910156 308.867188 170.1875 309.171875 170.65625 L 310.316406 172.667969 C 310.550781 173.066406 310.785156 173.367188 311.042969 173.53125 L 311.089844 173.601562 Z M 308.496094 174.140625 C 308.679688 174.023438 308.84375 173.882812 308.960938 173.671875 C 309.078125 173.484375 309.125 173.273438 309.125 173.042969 L 308.636719 172.199219 L 308.097656 172.503906 C 307.722656 172.714844 307.464844 172.949219 307.371094 173.179688 C 307.253906 173.414062 307.277344 173.648438 307.417969 173.90625 C 307.535156 174.09375 307.675781 174.210938 307.863281 174.257812 C 308.074219 174.304688 308.285156 174.257812 308.496094 174.140625 Z M 308.496094 174.140625 " fill-opacity="1" fill-rule="nonzero"/><path fill="#ffffff" d="M 309.710938 166.84375 L 310.410156 167.875 L 311.160156 167.359375 L 311.628906 168.085938 L 310.878906 168.597656 L 312.46875 170.960938 C 312.585938 171.125 312.703125 171.21875 312.796875 171.242188 C 312.914062 171.289062 313.03125 171.21875 313.21875 171.101562 C 313.335938 171.03125 313.429688 170.9375 313.523438 170.84375 L 314.035156 171.566406 C 313.871094 171.777344 313.683594 171.941406 313.476562 172.082031 C 312.75 172.574219 312.09375 172.410156 311.558594 171.613281 L 309.921875 169.207031 L 309.21875 169.675781 L 308.75 168.949219 L 309.453125 168.480469 L 308.75 167.453125 Z M 309.710938 166.84375 " fill-opacity="1" fill-rule="nonzero"/><path fill="#ffffff" d="M 316.816406 169.582031 C 316.257812 170.023438 315.648438 170.234375 315.019531 170.164062 C 314.386719 170.09375 313.800781 169.746094 313.335938 169.160156 L 313.242188 169.042969 C 312.914062 168.644531 312.703125 168.226562 312.609375 167.78125 C 312.515625 167.335938 312.539062 166.9375 312.65625 166.519531 C 312.796875 166.121094 313.03125 165.792969 313.382812 165.511719 C 313.917969 165.066406 314.503906 164.90625 315.066406 165 C 315.648438 165.113281 316.1875 165.464844 316.703125 166.121094 L 317.003906 166.472656 L 314.410156 168.574219 C 314.714844 168.878906 315.042969 169.042969 315.367188 169.089844 C 315.71875 169.136719 316.046875 169.042969 316.328125 168.785156 C 316.75 168.457031 316.933594 168.015625 316.933594 167.476562 L 317.777344 167.546875 C 317.824219 167.921875 317.730469 168.273438 317.589844 168.621094 C 317.402344 168.972656 317.167969 169.324219 316.816406 169.582031 Z M 313.941406 166.261719 C 313.707031 166.472656 313.566406 166.703125 313.546875 166.984375 C 313.523438 167.289062 313.636719 167.617188 313.847656 167.945312 L 315.554688 166.542969 L 315.507812 166.472656 C 315.25 166.191406 314.972656 166.027344 314.714844 165.980469 C 314.457031 165.980469 314.175781 166.050781 313.941406 166.261719 Z M 313.941406 166.261719 " fill-opacity="1" fill-rule="nonzero"/><path fill="#ffffff" d="M 269.867188 90.691406 C 269.726562 90.714844 269.566406 90.761719 269.425781 90.832031 C 268.933594 91.019531 268.652344 91.324219 268.628906 91.769531 L 269.820312 95.089844 L 268.722656 95.484375 L 266.992188 90.644531 L 268.023438 90.273438 L 268.253906 90.808594 C 268.371094 90.296875 268.652344 89.96875 269.121094 89.804688 C 269.261719 89.757812 269.402344 89.734375 269.542969 89.734375 Z M 269.867188 90.691406 " fill-opacity="1" fill-rule="nonzero"/><path fill="#ffffff" d="M 273.773438 93.894531 C 273.070312 94.082031 272.441406 94.035156 271.878906 93.683594 C 271.316406 93.359375 270.945312 92.820312 270.757812 92.09375 L 270.710938 91.953125 C 270.570312 91.464844 270.570312 90.996094 270.640625 90.550781 C 270.734375 90.109375 270.898438 89.734375 271.203125 89.429688 C 271.480469 89.125 271.832031 88.890625 272.277344 88.796875 C 272.953125 88.613281 273.539062 88.683594 274.007812 89.03125 C 274.5 89.359375 274.824219 89.921875 275.058594 90.714844 L 275.175781 91.160156 L 271.925781 92.023438 C 272.066406 92.421875 272.300781 92.726562 272.605469 92.890625 C 272.910156 93.054688 273.234375 93.101562 273.609375 93.007812 C 274.125 92.867188 274.476562 92.5625 274.683594 92.046875 L 275.433594 92.46875 C 275.316406 92.820312 275.105469 93.125 274.824219 93.382812 C 274.546875 93.613281 274.195312 93.800781 273.773438 93.894531 Z M 272.488281 89.6875 C 272.183594 89.757812 271.949219 89.945312 271.832031 90.226562 C 271.691406 90.480469 271.667969 90.832031 271.714844 91.230469 L 273.84375 90.667969 L 273.820312 90.597656 C 273.679688 90.25 273.515625 89.96875 273.28125 89.828125 C 273.070312 89.640625 272.792969 89.59375 272.488281 89.6875 Z M 272.488281 89.6875 " fill-opacity="1" fill-rule="nonzero"/><path fill="#ffffff" d="M 277.585938 92.984375 L 276.460938 93.195312 L 275.105469 86.015625 L 276.226562 85.804688 Z M 277.585938 92.984375 " fill-opacity="1" fill-rule="nonzero"/><path fill="#ffffff" d="M 280.789062 92.632812 C 280.0625 92.703125 279.453125 92.539062 278.941406 92.117188 C 278.425781 91.699219 278.144531 91.113281 278.074219 90.363281 L 278.050781 90.226562 C 278.003906 89.710938 278.050781 89.242188 278.191406 88.820312 C 278.332031 88.402344 278.589844 88.050781 278.917969 87.816406 C 279.246094 87.558594 279.640625 87.394531 280.0625 87.371094 C 280.765625 87.300781 281.324219 87.464844 281.746094 87.863281 C 282.191406 88.261719 282.425781 88.867188 282.519531 89.6875 L 282.566406 90.15625 L 279.222656 90.480469 C 279.292969 90.902344 279.453125 91.207031 279.757812 91.441406 C 280.015625 91.675781 280.367188 91.746094 280.742188 91.699219 C 281.277344 91.652344 281.652344 91.371094 281.957031 90.925781 L 282.636719 91.464844 C 282.472656 91.792969 282.214844 92.046875 281.886719 92.257812 C 281.582031 92.46875 281.207031 92.585938 280.789062 92.632812 Z M 280.203125 88.261719 C 279.875 88.308594 279.640625 88.425781 279.476562 88.683594 C 279.316406 88.914062 279.222656 89.242188 279.199219 89.640625 L 281.371094 89.40625 L 281.371094 89.3125 C 281.324219 88.9375 281.183594 88.660156 280.976562 88.472656 C 280.765625 88.308594 280.507812 88.238281 280.203125 88.261719 Z M 280.203125 88.261719 " fill-opacity="1" fill-rule="nonzero"/><path fill="#ffffff" d="M 286.375 92.351562 C 286.328125 92.257812 286.28125 92.09375 286.234375 91.863281 C 285.863281 92.234375 285.417969 92.421875 284.878906 92.398438 C 284.363281 92.398438 283.945312 92.234375 283.617188 91.953125 C 283.289062 91.652344 283.148438 91.300781 283.148438 90.855469 C 283.148438 90.316406 283.382812 89.898438 283.78125 89.617188 C 284.203125 89.335938 284.785156 89.171875 285.535156 89.195312 L 286.257812 89.21875 L 286.257812 88.890625 C 286.257812 88.636719 286.1875 88.425781 286.046875 88.261719 C 285.910156 88.097656 285.675781 88.027344 285.371094 88.027344 C 285.113281 88.027344 284.902344 88.074219 284.738281 88.214844 C 284.574219 88.355469 284.480469 88.519531 284.480469 88.703125 L 283.335938 88.683594 C 283.335938 88.402344 283.429688 88.144531 283.617188 87.886719 C 283.804688 87.652344 284.0625 87.441406 284.386719 87.324219 C 284.714844 87.183594 285.066406 87.113281 285.464844 87.136719 C 286.070312 87.136719 286.539062 87.300781 286.890625 87.605469 C 287.242188 87.910156 287.429688 88.332031 287.429688 88.890625 L 287.382812 91.207031 C 287.382812 91.675781 287.429688 92.023438 287.542969 92.328125 L 287.542969 92.398438 Z M 285.136719 91.511719 C 285.371094 91.511719 285.582031 91.464844 285.769531 91.371094 C 285.976562 91.253906 286.117188 91.136719 286.210938 90.925781 L 286.234375 89.96875 L 285.605469 89.945312 C 285.160156 89.945312 284.855469 89.992188 284.644531 90.15625 C 284.410156 90.296875 284.316406 90.503906 284.316406 90.785156 C 284.316406 91.019531 284.386719 91.183594 284.527344 91.324219 C 284.667969 91.441406 284.878906 91.511719 285.136719 91.511719 Z M 285.136719 91.511719 " fill-opacity="1" fill-rule="nonzero"/><path fill="#ffffff" d="M 291.191406 91.441406 C 291.238281 91.230469 291.144531 91.066406 291.003906 90.925781 C 290.863281 90.785156 290.585938 90.667969 290.210938 90.527344 C 289.835938 90.386719 289.507812 90.25 289.296875 90.085938 C 288.761719 89.734375 288.550781 89.289062 288.597656 88.773438 C 288.644531 88.332031 288.902344 88.003906 289.320312 87.769531 C 289.742188 87.535156 290.234375 87.441406 290.792969 87.535156 C 291.402344 87.605469 291.871094 87.839844 292.199219 88.191406 C 292.523438 88.542969 292.664062 88.960938 292.59375 89.429688 L 291.449219 89.289062 C 291.496094 89.054688 291.425781 88.867188 291.285156 88.703125 C 291.144531 88.542969 290.933594 88.449219 290.65625 88.402344 C 290.421875 88.355469 290.1875 88.402344 290.023438 88.496094 C 289.859375 88.589844 289.742188 88.726562 289.71875 88.9375 C 289.695312 89.101562 289.765625 89.265625 289.882812 89.382812 C 290.023438 89.5 290.304688 89.640625 290.726562 89.804688 C 291.167969 89.96875 291.496094 90.132812 291.730469 90.316406 C 291.964844 90.480469 292.128906 90.667969 292.246094 90.878906 C 292.339844 91.089844 292.386719 91.324219 292.339844 91.605469 C 292.292969 92.046875 292.035156 92.421875 291.613281 92.632812 C 291.191406 92.867188 290.679688 92.9375 290.070312 92.867188 C 289.648438 92.820312 289.296875 92.679688 288.972656 92.492188 C 288.667969 92.304688 288.433594 92.046875 288.292969 91.769531 C 288.152344 91.488281 288.105469 91.183594 288.152344 90.878906 L 289.273438 91.019531 C 289.25 91.277344 289.320312 91.511719 289.507812 91.675781 C 289.671875 91.839844 289.929688 91.953125 290.234375 92 C 290.539062 92.046875 290.773438 92.023438 290.957031 91.933594 C 291.050781 91.769531 291.144531 91.628906 291.191406 91.441406 Z M 291.191406 91.441406 " fill-opacity="1" fill-rule="nonzero"/><path fill="#ffffff" d="M 294.839844 93.800781 C 294.136719 93.613281 293.625 93.242188 293.320312 92.679688 C 292.992188 92.117188 292.945312 91.464844 293.15625 90.714844 L 293.203125 90.574219 C 293.34375 90.085938 293.554688 89.664062 293.835938 89.335938 C 294.136719 89.007812 294.464844 88.773438 294.886719 88.636719 C 295.285156 88.496094 295.703125 88.496094 296.125 88.613281 C 296.804688 88.796875 297.25 89.148438 297.527344 89.6875 C 297.761719 90.226562 297.785156 90.878906 297.574219 91.675781 L 297.457031 92.117188 L 294.230469 91.230469 C 294.160156 91.652344 294.183594 92 294.371094 92.304688 C 294.535156 92.609375 294.816406 92.820312 295.191406 92.914062 C 295.703125 93.054688 296.171875 92.960938 296.59375 92.632812 L 297.039062 93.359375 C 296.757812 93.589844 296.429688 93.753906 296.054688 93.824219 C 295.660156 93.941406 295.261719 93.917969 294.839844 93.800781 Z M 295.867188 89.5 C 295.566406 89.429688 295.285156 89.453125 295.050781 89.617188 C 294.816406 89.78125 294.605469 90.0625 294.441406 90.410156 L 296.570312 90.996094 L 296.59375 90.925781 C 296.664062 90.550781 296.640625 90.226562 296.523438 90.015625 C 296.382812 89.757812 296.171875 89.59375 295.867188 89.5 Z M 295.867188 89.5 " fill-opacity="1" fill-rule="nonzero"/><path fill="#ffffff" d="M 195.75 169.863281 C 195.9375 169.652344 196.03125 169.417969 196.03125 169.160156 C 196.03125 168.925781 195.9375 168.691406 195.773438 168.527344 L 196.5 167.710938 C 196.730469 167.945312 196.894531 168.203125 196.964844 168.527344 C 197.035156 168.855469 197.035156 169.183594 196.941406 169.535156 C 196.847656 169.863281 196.683594 170.1875 196.429688 170.46875 C 195.960938 171.007812 195.398438 171.289062 194.769531 171.289062 C 194.136719 171.289062 193.527344 171.03125 192.898438 170.46875 L 192.804688 170.398438 C 192.21875 169.863281 191.890625 169.300781 191.820312 168.691406 C 191.75 168.0625 191.960938 167.476562 192.453125 166.9375 C 192.875 166.496094 193.316406 166.214844 193.855469 166.191406 C 194.394531 166.144531 194.863281 166.308594 195.304688 166.679688 L 194.582031 167.5 C 194.347656 167.3125 194.113281 167.242188 193.855469 167.242188 C 193.597656 167.265625 193.363281 167.382812 193.15625 167.570312 C 192.921875 167.851562 192.828125 168.15625 192.898438 168.480469 C 192.96875 168.808594 193.203125 169.160156 193.621094 169.535156 L 193.761719 169.675781 C 194.183594 170.046875 194.558594 170.234375 194.886719 170.28125 C 195.210938 170.257812 195.492188 170.140625 195.75 169.863281 Z M 195.75 169.863281 " fill-opacity="1" fill-rule="nonzero"/><path fill="#ffffff" d="M 196.265625 166.589844 C 195.890625 166.261719 195.632812 165.863281 195.445312 165.464844 C 195.28125 165.046875 195.234375 164.648438 195.304688 164.226562 C 195.375 163.804688 195.585938 163.433594 195.890625 163.082031 C 196.359375 162.566406 196.894531 162.285156 197.503906 162.261719 C 198.136719 162.238281 198.71875 162.449219 199.304688 162.917969 L 199.515625 163.082031 C 199.886719 163.410156 200.167969 163.804688 200.332031 164.203125 C 200.496094 164.625 200.542969 165.023438 200.472656 165.441406 C 200.402344 165.863281 200.191406 166.261719 199.886719 166.589844 C 199.398438 167.125 198.835938 167.40625 198.203125 167.40625 C 197.550781 167.40625 196.917969 167.148438 196.3125 166.613281 Z M 197.105469 165.816406 C 197.503906 166.167969 197.878906 166.355469 198.25 166.402344 C 198.625 166.449219 198.929688 166.308594 199.1875 166.027344 C 199.445312 165.746094 199.515625 165.394531 199.445312 165.046875 C 199.375 164.695312 199.117188 164.320312 198.671875 163.921875 C 198.273438 163.59375 197.902344 163.386719 197.527344 163.363281 C 197.152344 163.316406 196.824219 163.453125 196.589844 163.734375 C 196.359375 164.015625 196.265625 164.34375 196.335938 164.695312 C 196.382812 165.046875 196.660156 165.417969 197.105469 165.816406 Z M 197.105469 165.816406 " fill-opacity="1" fill-rule="nonzero"/><path fill="#ffffff" d="M 198.929688 159.832031 L 199.398438 160.203125 C 199.304688 159.621094 199.46875 159.082031 199.886719 158.613281 C 200.613281 157.820312 201.410156 157.820312 202.34375 158.613281 L 204.867188 160.882812 L 204.097656 161.75 L 201.617188 159.527344 C 201.386719 159.292969 201.152344 159.199219 200.941406 159.199219 C 200.730469 159.199219 200.519531 159.316406 200.308594 159.550781 C 200.003906 159.878906 199.933594 160.296875 200.074219 160.765625 L 202.8125 163.199219 L 202.039062 164.0625 L 198.226562 160.625 Z M 198.929688 159.832031 " fill-opacity="1" fill-rule="nonzero"/><path fill="#ffffff" d="M 201.851562 154.6875 L 202.765625 155.503906 L 203.371094 154.828125 L 204.003906 155.386719 L 203.394531 156.066406 L 205.546875 157.960938 C 205.6875 158.101562 205.828125 158.148438 205.945312 158.148438 C 206.0625 158.148438 206.179688 158.078125 206.316406 157.914062 C 206.410156 157.820312 206.480469 157.703125 206.550781 157.585938 L 207.207031 158.195312 C 207.089844 158.429688 206.949219 158.636719 206.761719 158.824219 C 206.179688 159.480469 205.523438 159.480469 204.773438 158.847656 L 202.601562 156.910156 L 202.039062 157.539062 L 201.410156 156.976562 L 201.96875 156.347656 L 201.058594 155.527344 Z M 201.851562 154.6875 " fill-opacity="1" fill-rule="nonzero"/><path fill="#ffffff" d="M 202.976562 153.308594 C 202.835938 153.191406 202.765625 153.050781 202.742188 152.886719 C 202.71875 152.722656 202.789062 152.558594 202.929688 152.417969 C 203.066406 152.277344 203.207031 152.183594 203.371094 152.183594 C 203.535156 152.183594 203.699219 152.230469 203.816406 152.347656 C 203.957031 152.464844 204.027344 152.605469 204.027344 152.769531 C 204.050781 152.933594 203.980469 153.097656 203.839844 153.238281 C 203.699219 153.378906 203.558594 153.472656 203.394531 153.472656 C 203.230469 153.472656 203.089844 153.425781 202.976562 153.308594 Z M 208.609375 156.699219 L 207.839844 157.5625 L 204.003906 154.125 L 204.773438 153.261719 Z M 208.609375 156.699219 " fill-opacity="1" fill-rule="nonzero"/><path fill="#ffffff" d="M 206.316406 151.53125 L 206.785156 151.90625 C 206.691406 151.320312 206.855469 150.78125 207.277344 150.316406 C 208 149.519531 208.796875 149.519531 209.730469 150.316406 L 212.257812 152.582031 L 211.484375 153.449219 L 209.007812 151.226562 C 208.773438 150.992188 208.539062 150.898438 208.328125 150.898438 C 208.117188 150.898438 207.910156 151.015625 207.699219 151.25 C 207.394531 151.578125 207.324219 152 207.464844 152.464844 L 210.199219 154.898438 L 209.429688 155.761719 L 205.59375 152.347656 Z M 206.316406 151.53125 " fill-opacity="1" fill-rule="nonzero"/><path fill="#ffffff" d="M 214.734375 149.074219 C 214.804688 149.613281 214.640625 150.082031 214.222656 150.546875 C 213.847656 150.96875 213.449219 151.179688 213.003906 151.179688 C 212.5625 151.179688 212.117188 150.96875 211.671875 150.546875 L 209.195312 148.328125 L 209.964844 147.460938 L 212.421875 149.660156 C 212.910156 150.105469 213.332031 150.105469 213.683594 149.707031 C 214.058594 149.285156 214.152344 148.886719 213.988281 148.46875 L 211.226562 146.011719 L 212 145.148438 L 215.8125 148.585938 L 215.085938 149.402344 Z M 214.734375 149.074219 " fill-opacity="1" fill-rule="nonzero"/><path fill="#ffffff" d="M 214.546875 146.105469 C 214.175781 145.777344 213.917969 145.382812 213.730469 144.984375 C 213.566406 144.5625 213.519531 144.164062 213.589844 143.746094 C 213.660156 143.324219 213.871094 142.949219 214.175781 142.597656 C 214.640625 142.085938 215.179688 141.804688 215.789062 141.78125 C 216.417969 141.757812 217.003906 141.96875 217.589844 142.433594 L 217.796875 142.597656 C 218.171875 142.925781 218.453125 143.324219 218.617188 143.722656 C 218.78125 144.140625 218.828125 144.539062 218.757812 144.960938 C 218.6875 145.382812 218.476562 145.777344 218.171875 146.105469 C 217.679688 146.644531 217.121094 146.925781 216.488281 146.925781 C 215.835938 146.925781 215.203125 146.667969 214.59375 146.128906 Z M 215.390625 145.3125 C 215.789062 145.660156 216.160156 145.847656 216.535156 145.894531 C 216.910156 145.941406 217.214844 145.800781 217.472656 145.523438 C 217.726562 145.242188 217.796875 144.890625 217.726562 144.539062 C 217.660156 144.1875 217.402344 143.816406 216.957031 143.417969 C 216.558594 143.089844 216.183594 142.878906 215.8125 142.855469 C 215.4375 142.808594 215.109375 142.949219 214.875 143.230469 C 214.640625 143.511719 214.546875 143.839844 214.617188 144.1875 C 214.6875 144.539062 214.945312 144.914062 215.390625 145.3125 Z M 215.390625 145.3125 " fill-opacity="1" fill-rule="nonzero"/><path fill="#ffffff" d="M 222.03125 140.914062 C 222.101562 141.453125 221.9375 141.921875 221.515625 142.386719 C 221.140625 142.808594 220.746094 143.019531 220.300781 143.019531 C 219.855469 143.019531 219.410156 142.808594 218.96875 142.386719 L 216.488281 140.167969 L 217.261719 139.300781 L 219.714844 141.5 C 220.207031 141.945312 220.628906 141.945312 220.976562 141.546875 C 221.351562 141.125 221.445312 140.726562 221.28125 140.308594 L 218.523438 137.851562 L 219.296875 136.988281 L 223.105469 140.425781 L 222.382812 141.242188 Z M 222.03125 140.914062 " fill-opacity="1" fill-rule="nonzero"/><path fill="#ffffff" d="M 224.8125 136.449219 C 224.671875 136.308594 224.484375 136.285156 224.273438 136.308594 C 224.089844 136.355469 223.832031 136.519531 223.503906 136.753906 C 223.175781 136.988281 222.871094 137.175781 222.613281 137.292969 C 222.03125 137.523438 221.515625 137.476562 221.117188 137.128906 C 220.792969 136.824219 220.628906 136.449219 220.675781 135.980469 C 220.699219 135.515625 220.910156 135.070312 221.304688 134.625 C 221.726562 134.179688 222.148438 133.902344 222.636719 133.808594 C 223.105469 133.738281 223.550781 133.855469 223.902344 134.160156 L 223.128906 135.023438 C 222.964844 134.882812 222.777344 134.8125 222.546875 134.835938 C 222.3125 134.859375 222.125 134.976562 221.9375 135.164062 C 221.773438 135.351562 221.679688 135.539062 221.65625 135.75 C 221.632812 135.933594 221.703125 136.097656 221.84375 136.238281 C 221.984375 136.355469 222.125 136.378906 222.289062 136.355469 C 222.453125 136.308594 222.730469 136.144531 223.105469 135.886719 C 223.480469 135.632812 223.808594 135.445312 224.089844 135.328125 C 224.367188 135.234375 224.625 135.1875 224.835938 135.234375 C 225.046875 135.28125 225.28125 135.375 225.46875 135.5625 C 225.796875 135.863281 225.957031 136.261719 225.910156 136.730469 C 225.863281 137.199219 225.65625 137.664062 225.234375 138.132812 C 224.953125 138.460938 224.648438 138.671875 224.320312 138.835938 C 223.996094 138.976562 223.667969 139.023438 223.339844 138.976562 C 223.011719 138.929688 222.730469 138.8125 222.523438 138.625 L 223.269531 137.804688 C 223.480469 137.96875 223.714844 138.039062 223.949219 137.992188 C 224.183594 137.945312 224.390625 137.804688 224.601562 137.570312 C 224.8125 137.339844 224.929688 137.128906 224.929688 136.941406 C 225 136.730469 224.953125 136.589844 224.8125 136.449219 Z M 224.8125 136.449219 " fill-opacity="1" fill-rule="nonzero"/><path fill="#ffffff" d="M 225.09375 128.664062 L 226.003906 129.480469 L 226.613281 128.804688 L 227.246094 129.363281 L 226.636719 130.042969 L 228.789062 131.9375 C 228.929688 132.078125 229.066406 132.125 229.183594 132.125 C 229.300781 132.125 229.417969 132.054688 229.558594 131.890625 C 229.652344 131.796875 229.722656 131.679688 229.792969 131.5625 L 230.449219 132.171875 C 230.332031 132.40625 230.191406 132.613281 230.003906 132.800781 C 229.417969 133.457031 228.765625 133.457031 228.015625 132.824219 L 225.839844 130.886719 L 225.28125 131.515625 L 224.648438 130.953125 L 225.210938 130.324219 L 224.296875 129.503906 Z M 225.09375 128.664062 " fill-opacity="1" fill-rule="nonzero"/><path fill="#ffffff" d="M 232.621094 129.949219 C 232.132812 130.488281 231.570312 130.769531 230.9375 130.816406 C 230.308594 130.863281 229.675781 130.605469 229.113281 130.089844 L 229 129.996094 C 228.625 129.667969 228.34375 129.273438 228.179688 128.875 C 228.015625 128.453125 227.945312 128.054688 228.039062 127.636719 C 228.109375 127.214844 228.273438 126.839844 228.578125 126.511719 C 229.046875 125.976562 229.582031 125.742188 230.167969 125.742188 C 230.75 125.765625 231.359375 126.023438 231.96875 126.558594 L 232.296875 126.863281 L 230.050781 129.363281 C 230.378906 129.621094 230.726562 129.738281 231.078125 129.714844 C 231.429688 129.691406 231.734375 129.550781 231.992188 129.273438 C 232.339844 128.875 232.457031 128.40625 232.363281 127.867188 L 233.230469 127.796875 C 233.324219 128.148438 233.324219 128.523438 233.207031 128.898438 C 233.089844 129.296875 232.902344 129.644531 232.621094 129.949219 Z M 229.253906 127.121094 C 229.046875 127.355469 228.953125 127.636719 229 127.914062 C 229.046875 128.21875 229.183594 128.5 229.441406 128.828125 L 230.914062 127.191406 L 230.867188 127.144531 C 230.566406 126.910156 230.285156 126.792969 230.003906 126.792969 C 229.699219 126.746094 229.441406 126.886719 229.253906 127.121094 Z M 229.253906 127.121094 " fill-opacity="1" fill-rule="nonzero"/><path fill="#ffffff" d="M 235.382812 124.617188 C 235.242188 124.476562 235.054688 124.453125 234.84375 124.476562 C 234.65625 124.523438 234.398438 124.6875 234.070312 124.921875 C 233.746094 125.15625 233.441406 125.34375 233.183594 125.460938 C 232.597656 125.695312 232.085938 125.648438 231.6875 125.296875 C 231.359375 124.992188 231.195312 124.617188 231.242188 124.152344 C 231.265625 123.683594 231.476562 123.238281 231.875 122.796875 C 232.296875 122.351562 232.714844 122.070312 233.207031 121.976562 C 233.675781 121.90625 234.117188 122.023438 234.46875 122.328125 L 233.699219 123.191406 C 233.535156 123.050781 233.347656 122.980469 233.113281 123.003906 C 232.878906 123.027344 232.691406 123.144531 232.503906 123.332031 C 232.339844 123.519531 232.25 123.707031 232.226562 123.917969 C 232.203125 124.105469 232.273438 124.269531 232.410156 124.410156 C 232.550781 124.523438 232.691406 124.546875 232.855469 124.523438 C 233.019531 124.476562 233.300781 124.316406 233.675781 124.058594 C 234.046875 123.800781 234.375 123.613281 234.65625 123.496094 C 234.9375 123.402344 235.195312 123.355469 235.40625 123.402344 C 235.636719 123.449219 235.847656 123.542969 236.035156 123.730469 C 236.363281 124.035156 236.527344 124.433594 236.480469 124.898438 C 236.433594 125.367188 236.222656 125.835938 235.800781 126.300781 C 235.523438 126.628906 235.21875 126.839844 234.890625 127.003906 C 234.5625 127.144531 234.234375 127.191406 233.910156 127.144531 C 233.582031 127.097656 233.300781 126.980469 233.089844 126.792969 L 233.839844 125.976562 C 234.046875 126.136719 234.28125 126.207031 234.515625 126.160156 C 234.75 126.113281 234.960938 125.976562 235.171875 125.742188 C 235.382812 125.507812 235.5 125.296875 235.5 125.109375 C 235.589844 124.898438 235.546875 124.710938 235.382812 124.617188 Z M 235.382812 124.617188 " fill-opacity="1" fill-rule="nonzero"/><path fill="#ffffff" d="M 234.046875 118.609375 L 234.960938 119.429688 L 235.566406 118.75 L 236.199219 119.3125 L 235.589844 119.988281 L 237.742188 121.882812 C 237.882812 122.023438 238.023438 122.070312 238.140625 122.070312 C 238.257812 122.070312 238.375 122 238.515625 121.835938 C 238.609375 121.742188 238.679688 121.625 238.75 121.507812 L 239.402344 122.117188 C 239.285156 122.351562 239.144531 122.5625 238.957031 122.75 C 238.375 123.402344 237.71875 123.402344 236.972656 122.773438 L 234.796875 120.832031 L 234.234375 121.460938 L 233.605469 120.902344 L 234.164062 120.269531 L 233.253906 119.453125 Z M 234.046875 118.609375 " fill-opacity="1" fill-rule="nonzero"/><path fill="#ffffff" d="M 235.171875 117.207031 C 235.03125 117.089844 234.960938 116.949219 234.9375 116.785156 C 234.914062 116.621094 234.984375 116.457031 235.125 116.316406 C 235.265625 116.179688 235.40625 116.085938 235.566406 116.085938 C 235.730469 116.085938 235.894531 116.132812 236.011719 116.25 C 236.152344 116.363281 236.222656 116.503906 236.222656 116.667969 C 236.246094 116.832031 236.175781 116.996094 236.035156 117.136719 C 235.894531 117.277344 235.753906 117.371094 235.589844 117.371094 C 235.453125 117.394531 235.3125 117.347656 235.171875 117.207031 Z M 240.828125 120.621094 L 240.058594 121.484375 L 236.222656 118.046875 L 236.996094 117.183594 Z M 240.828125 120.621094 " fill-opacity="1" fill-rule="nonzero"/><path fill="#ffffff" d="M 238.539062 115.453125 L 239.003906 115.828125 C 238.910156 115.242188 239.074219 114.703125 239.496094 114.238281 C 240.222656 113.441406 241.015625 113.441406 241.953125 114.238281 L 244.476562 116.503906 L 243.703125 117.371094 L 241.226562 115.148438 C 240.992188 114.914062 240.757812 114.820312 240.546875 114.820312 C 240.339844 114.820312 240.128906 114.9375 239.917969 115.171875 C 239.613281 115.5 239.542969 115.921875 239.683594 116.386719 L 242.417969 118.820312 L 241.648438 119.683594 L 237.835938 116.25 Z M 238.539062 115.453125 " fill-opacity="1" fill-rule="nonzero"/><path fill="#ffffff" d="M 243.191406 114.074219 C 242.582031 113.535156 242.253906 112.976562 242.136719 112.390625 C 242.023438 111.78125 242.183594 111.269531 242.582031 110.800781 C 242.980469 110.355469 243.425781 110.167969 243.960938 110.167969 L 243.613281 109.796875 L 244.3125 109.023438 L 248.03125 112.34375 C 248.546875 112.789062 248.777344 113.300781 248.800781 113.863281 C 248.824219 114.425781 248.566406 114.984375 248.101562 115.523438 C 247.867188 115.804688 247.5625 116.039062 247.1875 116.179688 C 246.839844 116.339844 246.488281 116.410156 246.183594 116.386719 L 246.042969 115.523438 C 246.582031 115.546875 247.046875 115.359375 247.375 114.960938 C 247.632812 114.683594 247.75 114.378906 247.75 114.074219 C 247.75 113.769531 247.585938 113.488281 247.304688 113.230469 L 247.046875 113 C 247.09375 113.488281 246.953125 113.933594 246.582031 114.355469 C 246.183594 114.796875 245.667969 115.007812 245.0625 114.984375 C 244.429688 114.914062 243.820312 114.636719 243.191406 114.074219 Z M 244.03125 113.277344 C 244.40625 113.605469 244.78125 113.816406 245.15625 113.863281 C 245.503906 113.910156 245.808594 113.792969 246.066406 113.511719 C 246.371094 113.183594 246.464844 112.789062 246.300781 112.34375 L 244.617188 110.847656 C 244.171875 110.753906 243.796875 110.894531 243.496094 111.222656 C 243.261719 111.5 243.167969 111.828125 243.261719 112.179688 C 243.332031 112.507812 243.589844 112.882812 244.03125 113.277344 Z M 244.03125 113.277344 " fill-opacity="1" fill-rule="nonzero"/><path fill="#000000" d="M 167.972656 135.539062 C 167.878906 136.824219 167.410156 137.828125 166.546875 138.578125 C 165.683594 139.324219 164.558594 139.675781 163.15625 139.675781 C 161.613281 139.675781 160.421875 139.160156 159.53125 138.132812 C 158.644531 137.105469 158.222656 135.679688 158.222656 133.878906 L 158.222656 133.152344 C 158.222656 132.007812 158.433594 130.976562 158.832031 130.113281 C 159.226562 129.25 159.8125 128.570312 160.5625 128.101562 C 161.308594 127.636719 162.199219 127.402344 163.179688 127.402344 C 164.558594 127.402344 165.683594 127.773438 166.523438 128.5 C 167.363281 129.25 167.855469 130.277344 167.996094 131.609375 L 165.542969 131.609375 C 165.472656 130.839844 165.261719 130.277344 164.886719 129.925781 C 164.511719 129.574219 163.953125 129.410156 163.203125 129.410156 C 162.386719 129.410156 161.777344 129.714844 161.355469 130.300781 C 160.957031 130.886719 160.75 131.796875 160.726562 133.035156 L 160.726562 133.949219 C 160.726562 135.234375 160.910156 136.191406 161.308594 136.777344 C 161.707031 137.386719 162.316406 137.664062 163.15625 137.664062 C 163.929688 137.664062 164.488281 137.5 164.863281 137.152344 C 165.238281 136.800781 165.449219 136.261719 165.519531 135.539062 Z M 167.972656 135.539062 " fill-opacity="1" fill-rule="nonzero"/><path fill="#000000" d="M 169.75 127.542969 L 172.203125 127.542969 L 172.203125 139.511719 L 169.75 139.511719 Z M 169.75 127.542969 " fill-opacity="1" fill-rule="nonzero"/><path fill="#000000" d="M 284.410156 135.539062 C 284.316406 136.824219 283.851562 137.828125 282.984375 138.578125 C 282.121094 139.324219 281 139.675781 279.59375 139.675781 C 278.050781 139.675781 276.859375 139.160156 275.972656 138.132812 C 275.082031 137.105469 274.660156 135.679688 274.660156 133.878906 L 274.660156 133.152344 C 274.660156 132.007812 274.871094 130.976562 275.269531 130.113281 C 275.667969 129.25 276.25 128.570312 277 128.101562 C 277.75 127.636719 278.636719 127.402344 279.617188 127.402344 C 281 127.402344 282.121094 127.773438 282.960938 128.5 C 283.804688 129.25 284.296875 130.277344 284.433594 131.609375 L 281.980469 131.609375 C 281.910156 130.839844 281.699219 130.277344 281.324219 129.925781 C 280.953125 129.574219 280.390625 129.410156 279.640625 129.410156 C 278.824219 129.410156 278.214844 129.714844 277.796875 130.300781 C 277.398438 130.886719 277.1875 131.796875 277.164062 133.035156 L 277.164062 133.949219 C 277.164062 135.234375 277.351562 136.191406 277.75 136.777344 C 278.144531 137.386719 278.753906 137.664062 279.59375 137.664062 C 280.367188 137.664062 280.929688 137.5 281.300781 137.152344 C 281.675781 136.800781 281.886719 136.261719 281.957031 135.539062 Z M 284.410156 135.539062 " fill-opacity="1" fill-rule="nonzero"/><path fill="#000000" d="M 286.023438 139.511719 L 286.023438 127.542969 L 289.71875 127.542969 C 290.773438 127.542969 291.707031 127.773438 292.546875 128.242188 C 293.390625 128.710938 294.023438 129.386719 294.488281 130.253906 C 294.957031 131.117188 295.191406 132.125 295.191406 133.222656 L 295.191406 133.785156 C 295.191406 134.90625 294.957031 135.886719 294.511719 136.753906 C 294.042969 137.617188 293.414062 138.296875 292.570312 138.765625 C 291.730469 139.230469 290.796875 139.488281 289.742188 139.488281 L 286.023438 139.488281 Z M 288.503906 129.550781 L 288.503906 137.523438 L 289.695312 137.523438 C 290.65625 137.523438 291.402344 137.222656 291.917969 136.589844 C 292.429688 135.957031 292.6875 135.046875 292.6875 133.878906 L 292.6875 133.246094 C 292.6875 132.03125 292.429688 131.117188 291.941406 130.488281 C 291.425781 129.855469 290.703125 129.550781 289.71875 129.550781 Z M 288.503906 129.550781 " fill-opacity="1" fill-rule="nonzero"/></svg>